<svg width="64" height="64" viewBox="0 0 64 64" fill="none" xmlns="http://www.w3.org/2000/svg">
<g clip-path="url(#clip0_4_13)">
<path d="M52 0H12C5.37258 0 0 5.37258 0 12V52C0 58.6274 5.37258 64 12 64H52C58.6274 64 64 58.6274 64 52V12C64 5.37258 58.6274 0 52 0Z" fill="#1A1F2E"/>
<path d="M32 58C46.3594 58 58 46.3594 58 32C58 17.6406 46.3594 6 32 6C17.6406 6 6 17.6406 6 32C6 46.3594 17.6406 58 32 58Z" stroke="#FF69B4" stroke-width="9"/>
<path d="M50.1472 28.0765L35.3829 13.6153C33.3444 11.6186 30.0732 11.6526 28.0765 13.6911L13.6153 28.4554C11.6186 30.4939 11.6526 33.7651 13.6911 35.7618L28.4554 50.223C30.4939 52.2196 33.7651 52.1857 35.7618 50.1472L50.223 35.3829C52.2196 33.3444 52.1857 30.0732 50.1472 28.0765Z" fill="#4A86E8"/>
</g>
<defs>
<clipPath id="clip0_4_13">
<rect width="64" height="64" fill="white"/>
</clipPath>
</defs>
</svg>
